<svg width="93" height="36" viewBox="0 0 93 36" fill="none" xmlns="http://www.w3.org/2000/svg">
<rect width="36" height="36" rx="18" fill="#EF512A"/>
<path d="M6.07599 12.0909H8.49432L11.733 19.9957H11.8608L15.0994 12.0909H17.5178V23H15.6214V15.5053H15.5202L12.5053 22.968H11.0884L8.07351 15.4893H7.9723V23H6.07599V12.0909ZM19.6697 23V12.0909H21.646V16.7092H26.701V12.0909H28.6825V23H26.701V18.3658H21.646V23H19.6697Z" fill="white"/>
<path d="M45.076 12.0909H47.4943L50.733 19.9957H50.8608L54.0994 12.0909H56.5178V23H54.6214V15.5053H54.5202L51.5053 22.968H50.0884L47.0735 15.4893H46.9723V23H45.076V12.0909ZM66.0872 23H62.3904V12.0909H66.1618C67.2449 12.0909 68.1752 12.3093 68.9529 12.7461C69.7342 13.1793 70.3343 13.8026 70.7534 14.6158C71.1724 15.429 71.3819 16.402 71.3819 17.5348C71.3819 18.6712 71.1706 19.6477 70.748 20.4645C70.329 21.2812 69.7235 21.908 68.9316 22.3448C68.1433 22.7816 67.1951 23 66.0872 23ZM64.3667 21.2901H65.9913C66.7512 21.2901 67.3851 21.1516 67.8929 20.8746C68.4007 20.5941 68.7825 20.1768 69.0382 19.6229C69.2939 19.0653 69.4217 18.3693 69.4217 17.5348C69.4217 16.7003 69.2939 16.0078 69.0382 15.4574C68.7825 14.9034 68.4043 14.4897 67.9036 14.2163C67.4064 13.9393 66.7885 13.8008 66.0499 13.8008H64.3667V21.2901ZM73.2596 23V12.0909H80.3548V13.7475H75.2358V16.7092H79.9872V18.3658H75.2358V21.3434H80.3974V23H73.2596ZM83.8304 12.0909L86.6696 20.6776H86.7814L89.6152 12.0909H91.7885L87.9426 23H85.503L81.6625 12.0909H83.8304Z" fill="black"/>
</svg>
